<svg viewBox="0 0 134 134" fill="none" xmlns="http://www.w3.org/2000/svg">
<path d="M79.268 112.471C79.268 105.695 73.7751 100.203 66.9995 100.203C60.2239 100.203 54.7314 105.695 54.7314 112.471C54.7314 119.246 60.2242 134 66.9995 134C73.7751 134 79.268 119.247 79.268 112.471Z" fill="#FFC843"/>
<path d="M72.9936 112.124C72.9936 108.814 70.3098 106.13 66.9995 106.13C63.6892 106.13 61.0054 108.814 61.0054 112.124C61.0054 115.435 63.6892 122.643 66.9995 122.643C70.3098 122.642 72.9936 115.435 72.9936 112.124Z" fill="#BF534F"/>
<path d="M79.972 104.984C81.581 104.984 91.3478 104.439 93.2458 113.028C94.7463 119.817 95.2572 123.386 100.084 123.386C104.91 123.386 106.972 119.314 104.911 106.995C103.218 96.8823 101.894 90.0508 79.972 90.0508V104.984Z" fill="#BF534F"/>
<path d="M54.0276 104.984C52.4187 104.984 42.6518 104.439 40.7538 113.028C39.2534 119.817 38.7424 123.386 33.9159 123.386C29.0893 123.386 27.0275 119.314 29.089 106.995C30.7812 96.8823 32.1057 90.0508 54.0276 90.0508V104.984Z" fill="#BF534F"/>
<path d="M83.8937 108.302C88.0944 92.3605 91.6785 65.3133 91.6785 54.1513C91.6785 42.9893 83.5923 14.179 66.9998 0.000244141C50.4076 14.179 42.3208 42.9893 42.3208 54.1513C42.3208 65.3133 45.905 92.3605 50.1057 108.302H83.8937Z" fill="#1E90FF"/>
<path d="M66.9995 0C61.4857 4.71193 56.9123 11.0403 53.2616 17.7991H80.7374C77.0867 11.0403 72.5137 4.71193 66.9995 0Z" fill="#BF534F"/>
<path d="M47.296 95.6318C48.1734 100.233 49.1226 104.572 50.1057 108.302H83.8937C84.8768 104.572 85.8259 100.233 86.7034 95.6318H47.296Z" fill="#333E48"/>
<path d="M72.9225 67.1818C72.9225 60.7391 81.0277 58.9725 81.0277 48.2695C81.0277 40.5217 74.7472 34.2412 66.9998 34.2412C59.2524 34.2412 52.9716 40.5217 52.9716 48.2695C52.9716 58.9725 61.0768 60.7388 61.0768 67.1818H72.9225Z" fill="white"/>
<path d="M60.302 69.626C60.302 73.3251 63.3006 76.3237 66.9998 76.3237C70.6989 76.3237 73.6976 73.3251 73.6976 69.626H60.302Z" fill="#A4A9AD"/>
<path d="M74.907 69.0519C74.907 68.0229 74.0654 67.1816 73.0365 67.1816H60.9618C59.9332 67.1816 59.0916 68.0229 59.0916 69.0519V71.6494C59.0916 72.6783 59.9335 73.52 60.9618 73.52H73.0365C74.0654 73.52 74.907 72.6783 74.907 71.6494V69.0519Z" fill="#333E48"/>
</svg>
