<svg width="1440" height="4100" viewBox="0 0 1440 4100" fill="none" xmlns="http://www.w3.org/2000/svg">
<rect width="1440" height="4100" fill="url(#paint0_linear)"/>
<rect width="1440" height="4100" fill="url(#paint1_linear)"/>
<rect width="1440" height="4100" fill="url(#paint2_radial)"/>
<rect width="1440" height="4100" fill="url(#paint3_radial)"/>
<rect width="1440" height="4100" fill="url(#paint4_linear)" fill-opacity="0.1"/>
<rect width="1440" height="4100" fill="url(#paint5_angular)" fill-opacity="0.05"/>
<rect width="1440" height="4100" fill="url(#paint6_radial)"/>
<g clip-path="url(#clip0)">
<rect width="1440" height="4100" fill="url(#paint7_linear)"/>
<rect width="1440" height="4100" fill="url(#paint8_linear)"/>
<rect width="1440" height="4100" fill="url(#paint9_radial)"/>
<rect width="1440" height="4100" fill="url(#paint10_radial)"/>
<rect width="1440" height="4100" fill="url(#paint11_linear)" fill-opacity="0.1"/>
<rect width="1440" height="4100" fill="url(#paint12_angular)" fill-opacity="0.05"/>
<rect width="1440" height="4100" fill="url(#paint13_radial)" fill-opacity="0.6"/>
<g filter="url(#filter0_b)">
<ellipse cx="752.101" cy="2006.92" rx="81.6764" ry="80.7789" fill="url(#paint14_linear)" fill-opacity="0.05"/>
<path d="M833.277 2006.92C833.277 2051.25 796.938 2087.2 752.101 2087.2C707.263 2087.2 670.924 2051.25 670.924 2006.92C670.924 1962.59 707.263 1926.64 752.101 1926.64C796.938 1926.64 833.277 1962.59 833.277 2006.92Z" stroke="white" stroke-opacity="0.3"/>
</g>
<g filter="url(#filter1_b)">
<ellipse cx="51.2641" cy="2235.07" rx="81.6764" ry="80.7789" fill="url(#paint15_linear)" fill-opacity="0.05"/>
<path d="M132.441 2235.07C132.441 2279.4 96.1018 2315.35 51.2641 2315.35C6.42635 2315.35 -29.9124 2279.4 -29.9124 2235.07C-29.9124 2190.74 6.42635 2154.79 51.2641 2154.79C96.1018 2154.79 132.441 2190.74 132.441 2235.07Z" stroke="white" stroke-opacity="0.3"/>
</g>
<g filter="url(#filter2_b)">
<ellipse cx="752.101" cy="1496.19" rx="81.6764" ry="80.7789" fill="url(#paint16_linear)" fill-opacity="0.05"/>
<path d="M833.277 1496.19C833.277 1540.52 796.938 1576.47 752.101 1576.47C707.263 1576.47 670.924 1540.52 670.924 1496.19C670.924 1451.86 707.263 1415.91 752.101 1415.91C796.938 1415.91 833.277 1451.86 833.277 1496.19Z" stroke="white" stroke-opacity="0.3"/>
</g>
<g filter="url(#filter3_b)">
<ellipse cx="51.2641" cy="1724.34" rx="81.6764" ry="80.7789" fill="url(#paint17_linear)" fill-opacity="0.05"/>
<path d="M132.441 1724.34C132.441 1768.67 96.1018 1804.62 51.2641 1804.62C6.42635 1804.62 -29.9124 1768.67 -29.9124 1724.34C-29.9124 1680.01 6.42635 1644.06 51.2641 1644.06C96.1018 1644.06 132.441 1680.01 132.441 1724.34Z" stroke="white" stroke-opacity="0.3"/>
</g>
<g filter="url(#filter4_b)">
<ellipse cx="746.246" cy="985.456" rx="81.6764" ry="80.7789" fill="url(#paint18_linear)" fill-opacity="0.05"/>
<path d="M827.422 985.456C827.422 1029.79 791.084 1065.74 746.246 1065.74C701.408 1065.74 665.069 1029.79 665.069 985.456C665.069 941.125 701.408 905.177 746.246 905.177C791.084 905.177 827.422 941.125 827.422 985.456Z" stroke="white" stroke-opacity="0.3"/>
</g>
<g filter="url(#filter5_b)">
<ellipse cx="45.4091" cy="1213.61" rx="81.6764" ry="80.7789" fill="url(#paint19_linear)" fill-opacity="0.05"/>
<path d="M126.586 1213.61C126.586 1257.94 90.2468 1293.89 45.4091 1293.89C0.571373 1293.89 -35.7673 1257.94 -35.7673 1213.61C-35.7673 1169.27 0.571373 1133.33 45.4091 1133.33C90.2468 1133.33 126.586 1169.27 126.586 1213.61Z" stroke="white" stroke-opacity="0.3"/>
</g>
<g filter="url(#filter6_b)">
<ellipse cx="735.707" cy="578.377" rx="81.6764" ry="80.7789" fill="url(#paint20_linear)" fill-opacity="0.05"/>
<path d="M816.883 578.377C816.883 622.709 780.544 658.656 735.707 658.656C690.869 658.656 654.53 622.709 654.53 578.377C654.53 534.046 690.869 498.098 735.707 498.098C780.544 498.098 816.883 534.046 816.883 578.377Z" stroke="white" stroke-opacity="0.3"/>
</g>
<g filter="url(#filter7_b)">
<ellipse cx="34.8703" cy="806.527" rx="81.6764" ry="80.7789" fill="url(#paint21_linear)" fill-opacity="0.05"/>
<path d="M116.047 806.527C116.047 850.859 79.708 886.806 34.8703 886.806C-9.96745 886.806 -46.3062 850.859 -46.3062 806.527C-46.3062 762.195 -9.96745 726.248 34.8703 726.248C79.708 726.248 116.047 762.195 116.047 806.527Z" stroke="white" stroke-opacity="0.3"/>
</g>
<g filter="url(#filter8_b)">
<ellipse cx="767.324" cy="80.3854" rx="81.6764" ry="80.7789" fill="url(#paint22_linear)" fill-opacity="0.05"/>
<path d="M848.5 80.3854C848.5 124.717 812.161 160.664 767.324 160.664C722.486 160.664 686.147 124.717 686.147 80.3854C686.147 36.0537 722.486 0.106445 767.324 0.106445C812.161 0.106445 848.5 36.0537 848.5 80.3854Z" stroke="white" stroke-opacity="0.3"/>
</g>
<g filter="url(#filter9_b)">
<ellipse cx="66.487" cy="308.535" rx="81.6764" ry="80.7789" fill="url(#paint23_linear)" fill-opacity="0.05"/>
<path d="M147.663 308.535C147.663 352.866 111.325 388.814 66.487 388.814C21.6493 388.814 -14.6895 352.866 -14.6895 308.535C-14.6895 264.203 21.6493 228.256 66.487 228.256C111.325 228.256 147.663 264.203 147.663 308.535Z" stroke="white" stroke-opacity="0.3"/>
</g>
<g filter="url(#filter10_b)">
<ellipse cx="737.907" cy="3919.07" rx="81.6764" ry="80.7789" fill="url(#paint24_linear)" fill-opacity="0.05"/>
<path d="M819.083 3919.07C819.083 3963.4 782.744 3999.35 737.907 3999.35C693.069 3999.35 656.73 3963.4 656.73 3919.07C656.73 3874.74 693.069 3838.79 737.907 3838.79C782.744 3838.79 819.083 3874.74 819.083 3919.07Z" stroke="white" stroke-opacity="0.3"/>
</g>
<g filter="url(#filter11_b)">
<ellipse cx="37.0702" cy="4147.22" rx="81.6764" ry="80.7789" fill="url(#paint25_linear)" fill-opacity="0.05"/>
<path d="M118.247 4147.22C118.247 4191.55 81.908 4227.5 37.0702 4227.5C-7.76749 4227.5 -44.1062 4191.55 -44.1062 4147.22C-44.1062 4102.89 -7.76749 4066.94 37.0702 4066.94C81.908 4066.94 118.247 4102.89 118.247 4147.22Z" stroke="white" stroke-opacity="0.3"/>
</g>
<g filter="url(#filter12_b)">
<ellipse cx="737.907" cy="3408.34" rx="81.6764" ry="80.7789" fill="url(#paint26_linear)" fill-opacity="0.05"/>
<path d="M819.083 3408.34C819.083 3452.67 782.744 3488.62 737.907 3488.62C693.069 3488.62 656.73 3452.67 656.73 3408.34C656.73 3364.01 693.069 3328.06 737.907 3328.06C782.744 3328.06 819.083 3364.01 819.083 3408.34Z" stroke="white" stroke-opacity="0.3"/>
</g>
<g filter="url(#filter13_b)">
<ellipse cx="37.0702" cy="3636.49" rx="81.6764" ry="80.7789" fill="url(#paint27_linear)" fill-opacity="0.05"/>
<path d="M118.247 3636.49C118.247 3680.82 81.908 3716.77 37.0702 3716.77C-7.76749 3716.77 -44.1062 3680.82 -44.1062 3636.49C-44.1062 3592.16 -7.76749 3556.21 37.0702 3556.21C81.908 3556.21 118.247 3592.16 118.247 3636.49Z" stroke="white" stroke-opacity="0.3"/>
</g>
<g filter="url(#filter14_b)">
<ellipse cx="732.052" cy="2897.61" rx="81.6764" ry="80.7789" fill="url(#paint28_linear)" fill-opacity="0.05"/>
<path d="M813.229 2897.61C813.229 2941.94 776.89 2977.89 732.052 2977.89C687.214 2977.89 650.876 2941.94 650.876 2897.61C650.876 2853.28 687.214 2817.33 732.052 2817.33C776.89 2817.33 813.229 2853.28 813.229 2897.61Z" stroke="white" stroke-opacity="0.3"/>
</g>
<g filter="url(#filter15_b)">
<ellipse cx="31.2154" cy="3125.76" rx="81.6764" ry="80.7789" fill="url(#paint29_linear)" fill-opacity="0.05"/>
<path d="M112.392 3125.76C112.392 3170.09 76.0531 3206.04 31.2154 3206.04C-13.6224 3206.04 -49.9611 3170.09 -49.9611 3125.76C-49.9611 3081.43 -13.6224 3045.48 31.2154 3045.48C76.0531 3045.48 112.392 3081.43 112.392 3125.76Z" stroke="white" stroke-opacity="0.3"/>
</g>
<g filter="url(#filter16_b)">
<ellipse cx="721.513" cy="2490.53" rx="81.6764" ry="80.7789" fill="url(#paint30_linear)" fill-opacity="0.05"/>
<path d="M802.69 2490.53C802.69 2534.86 766.351 2570.81 721.513 2570.81C676.675 2570.81 640.337 2534.86 640.337 2490.53C640.337 2446.2 676.675 2410.25 721.513 2410.25C766.351 2410.25 802.69 2446.2 802.69 2490.53Z" stroke="white" stroke-opacity="0.3"/>
</g>
<g filter="url(#filter17_b)">
<ellipse cx="20.6764" cy="2718.68" rx="81.6764" ry="80.7789" fill="url(#paint31_linear)" fill-opacity="0.05"/>
<path d="M101.853 2718.68C101.853 2763.01 65.5142 2798.96 20.6764 2798.96C-24.1613 2798.96 -60.5 2763.01 -60.5 2718.68C-60.5 2674.35 -24.1613 2638.4 20.6764 2638.4C65.5142 2638.4 101.853 2674.35 101.853 2718.68Z" stroke="white" stroke-opacity="0.3"/>
</g>
<g filter="url(#filter18_b)">
<circle cx="1411.11" cy="3663.88" r="142.936" fill="url(#paint32_linear)" fill-opacity="0.1"/>
<circle cx="1411.11" cy="3663.88" r="142.436" stroke="white" stroke-opacity="0.3"/>
</g>
<g filter="url(#filter19_b)">
<circle cx="184.626" cy="4067.59" r="142.936" fill="url(#paint33_linear)" fill-opacity="0.1"/>
<circle cx="184.626" cy="4067.59" r="142.436" stroke="white" stroke-opacity="0.3"/>
</g>
<g filter="url(#filter20_b)">
<circle cx="1411.11" cy="2760.16" r="142.936" fill="url(#paint34_linear)" fill-opacity="0.1"/>
<circle cx="1411.11" cy="2760.16" r="142.436" stroke="white" stroke-opacity="0.3"/>
</g>
<g filter="url(#filter21_b)">
<circle cx="184.626" cy="3163.86" r="142.936" fill="url(#paint35_linear)" fill-opacity="0.1"/>
<circle cx="184.626" cy="3163.86" r="142.436" stroke="white" stroke-opacity="0.3"/>
</g>
<g filter="url(#filter22_b)">
<circle cx="1400.86" cy="1856.43" r="142.936" fill="url(#paint36_linear)" fill-opacity="0.1"/>
<circle cx="1400.86" cy="1856.43" r="142.436" stroke="white" stroke-opacity="0.3"/>
</g>
<g filter="url(#filter23_b)">
<circle cx="174.379" cy="2260.14" r="142.936" fill="url(#paint37_linear)" fill-opacity="0.1"/>
<circle cx="174.379" cy="2260.14" r="142.436" stroke="white" stroke-opacity="0.3"/>
</g>
<g filter="url(#filter24_b)">
<circle cx="1382.42" cy="1136.12" r="142.936" fill="url(#paint38_linear)" fill-opacity="0.1"/>
<circle cx="1382.42" cy="1136.12" r="142.436" stroke="white" stroke-opacity="0.3"/>
</g>
<g filter="url(#filter25_b)">
<circle cx="155.936" cy="1539.82" r="142.936" fill="url(#paint39_linear)" fill-opacity="0.1"/>
<circle cx="155.936" cy="1539.82" r="142.436" stroke="white" stroke-opacity="0.3"/>
</g>
<g filter="url(#filter26_b)">
<circle cx="1437.75" cy="254.936" r="142.936" fill="url(#paint40_linear)" fill-opacity="0.1"/>
<circle cx="1437.75" cy="254.936" r="142.436" stroke="white" stroke-opacity="0.3"/>
</g>
<g filter="url(#filter27_b)">
<circle cx="211.266" cy="658.64" r="142.936" fill="url(#paint41_linear)" fill-opacity="0.1"/>
<circle cx="211.266" cy="658.64" r="142.436" stroke="white" stroke-opacity="0.3"/>
</g>
</g>
<defs>
<filter id="filter0_b" x="270.424" y="1526.14" width="963.353" height="961.558" filterUnits="userSpaceOnUse" color-interpolation-filters="sRGB">
<feFlood flood-opacity="0" result="BackgroundImageFix"/>
<feGaussianBlur in="BackgroundImage" stdDeviation="200"/>
<feComposite in2="SourceAlpha" operator="in" result="effect1_backgroundBlur"/>
<feBlend mode="normal" in="SourceGraphic" in2="effect1_backgroundBlur" result="shape"/>
</filter>
<filter id="filter1_b" x="-430.412" y="1754.29" width="963.353" height="961.558" filterUnits="userSpaceOnUse" color-interpolation-filters="sRGB">
<feFlood flood-opacity="0" result="BackgroundImageFix"/>
<feGaussianBlur in="BackgroundImage" stdDeviation="200"/>
<feComposite in2="SourceAlpha" operator="in" result="effect1_backgroundBlur"/>
<feBlend mode="normal" in="SourceGraphic" in2="effect1_backgroundBlur" result="shape"/>
</filter>
<filter id="filter2_b" x="270.424" y="1015.41" width="963.353" height="961.558" filterUnits="userSpaceOnUse" color-interpolation-filters="sRGB">
<feFlood flood-opacity="0" result="BackgroundImageFix"/>
<feGaussianBlur in="BackgroundImage" stdDeviation="200"/>
<feComposite in2="SourceAlpha" operator="in" result="effect1_backgroundBlur"/>
<feBlend mode="normal" in="SourceGraphic" in2="effect1_backgroundBlur" result="shape"/>
</filter>
<filter id="filter3_b" x="-430.412" y="1243.56" width="963.353" height="961.558" filterUnits="userSpaceOnUse" color-interpolation-filters="sRGB">
<feFlood flood-opacity="0" result="BackgroundImageFix"/>
<feGaussianBlur in="BackgroundImage" stdDeviation="200"/>
<feComposite in2="SourceAlpha" operator="in" result="effect1_backgroundBlur"/>
<feBlend mode="normal" in="SourceGraphic" in2="effect1_backgroundBlur" result="shape"/>
</filter>
<filter id="filter4_b" x="264.569" y="504.677" width="963.353" height="961.558" filterUnits="userSpaceOnUse" color-interpolation-filters="sRGB">
<feFlood flood-opacity="0" result="BackgroundImageFix"/>
<feGaussianBlur in="BackgroundImage" stdDeviation="200"/>
<feComposite in2="SourceAlpha" operator="in" result="effect1_backgroundBlur"/>
<feBlend mode="normal" in="SourceGraphic" in2="effect1_backgroundBlur" result="shape"/>
</filter>
<filter id="filter5_b" x="-436.267" y="732.827" width="963.353" height="961.558" filterUnits="userSpaceOnUse" color-interpolation-filters="sRGB">
<feFlood flood-opacity="0" result="BackgroundImageFix"/>
<feGaussianBlur in="BackgroundImage" stdDeviation="200"/>
<feComposite in2="SourceAlpha" operator="in" result="effect1_backgroundBlur"/>
<feBlend mode="normal" in="SourceGraphic" in2="effect1_backgroundBlur" result="shape"/>
</filter>
<filter id="filter6_b" x="254.03" y="97.5984" width="963.353" height="961.558" filterUnits="userSpaceOnUse" color-interpolation-filters="sRGB">
<feFlood flood-opacity="0" result="BackgroundImageFix"/>
<feGaussianBlur in="BackgroundImage" stdDeviation="200"/>
<feComposite in2="SourceAlpha" operator="in" result="effect1_backgroundBlur"/>
<feBlend mode="normal" in="SourceGraphic" in2="effect1_backgroundBlur" result="shape"/>
</filter>
<filter id="filter7_b" x="-446.806" y="325.748" width="963.353" height="961.558" filterUnits="userSpaceOnUse" color-interpolation-filters="sRGB">
<feFlood flood-opacity="0" result="BackgroundImageFix"/>
<feGaussianBlur in="BackgroundImage" stdDeviation="200"/>
<feComposite in2="SourceAlpha" operator="in" result="effect1_backgroundBlur"/>
<feBlend mode="normal" in="SourceGraphic" in2="effect1_backgroundBlur" result="shape"/>
</filter>
<filter id="filter8_b" x="285.647" y="-400.394" width="963.353" height="961.558" filterUnits="userSpaceOnUse" color-interpolation-filters="sRGB">
<feFlood flood-opacity="0" result="BackgroundImageFix"/>
<feGaussianBlur in="BackgroundImage" stdDeviation="200"/>
<feComposite in2="SourceAlpha" operator="in" result="effect1_backgroundBlur"/>
<feBlend mode="normal" in="SourceGraphic" in2="effect1_backgroundBlur" result="shape"/>
</filter>
<filter id="filter9_b" x="-415.189" y="-172.244" width="963.353" height="961.558" filterUnits="userSpaceOnUse" color-interpolation-filters="sRGB">
<feFlood flood-opacity="0" result="BackgroundImageFix"/>
<feGaussianBlur in="BackgroundImage" stdDeviation="200"/>
<feComposite in2="SourceAlpha" operator="in" result="effect1_backgroundBlur"/>
<feBlend mode="normal" in="SourceGraphic" in2="effect1_backgroundBlur" result="shape"/>
</filter>
<filter id="filter10_b" x="256.23" y="3438.29" width="963.353" height="961.558" filterUnits="userSpaceOnUse" color-interpolation-filters="sRGB">
<feFlood flood-opacity="0" result="BackgroundImageFix"/>
<feGaussianBlur in="BackgroundImage" stdDeviation="200"/>
<feComposite in2="SourceAlpha" operator="in" result="effect1_backgroundBlur"/>
<feBlend mode="normal" in="SourceGraphic" in2="effect1_backgroundBlur" result="shape"/>
</filter>
<filter id="filter11_b" x="-444.606" y="3666.44" width="963.353" height="961.558" filterUnits="userSpaceOnUse" color-interpolation-filters="sRGB">
<feFlood flood-opacity="0" result="BackgroundImageFix"/>
<feGaussianBlur in="BackgroundImage" stdDeviation="200"/>
<feComposite in2="SourceAlpha" operator="in" result="effect1_backgroundBlur"/>
<feBlend mode="normal" in="SourceGraphic" in2="effect1_backgroundBlur" result="shape"/>
</filter>
<filter id="filter12_b" x="256.23" y="2927.56" width="963.353" height="961.558" filterUnits="userSpaceOnUse" color-interpolation-filters="sRGB">
<feFlood flood-opacity="0" result="BackgroundImageFix"/>
<feGaussianBlur in="BackgroundImage" stdDeviation="200"/>
<feComposite in2="SourceAlpha" operator="in" result="effect1_backgroundBlur"/>
<feBlend mode="normal" in="SourceGraphic" in2="effect1_backgroundBlur" result="shape"/>
</filter>
<filter id="filter13_b" x="-444.606" y="3155.71" width="963.353" height="961.558" filterUnits="userSpaceOnUse" color-interpolation-filters="sRGB">
<feFlood flood-opacity="0" result="BackgroundImageFix"/>
<feGaussianBlur in="BackgroundImage" stdDeviation="200"/>
<feComposite in2="SourceAlpha" operator="in" result="effect1_backgroundBlur"/>
<feBlend mode="normal" in="SourceGraphic" in2="effect1_backgroundBlur" result="shape"/>
</filter>
<filter id="filter14_b" x="250.376" y="2416.83" width="963.353" height="961.558" filterUnits="userSpaceOnUse" color-interpolation-filters="sRGB">
<feFlood flood-opacity="0" result="BackgroundImageFix"/>
<feGaussianBlur in="BackgroundImage" stdDeviation="200"/>
<feComposite in2="SourceAlpha" operator="in" result="effect1_backgroundBlur"/>
<feBlend mode="normal" in="SourceGraphic" in2="effect1_backgroundBlur" result="shape"/>
</filter>
<filter id="filter15_b" x="-450.461" y="2644.98" width="963.353" height="961.558" filterUnits="userSpaceOnUse" color-interpolation-filters="sRGB">
<feFlood flood-opacity="0" result="BackgroundImageFix"/>
<feGaussianBlur in="BackgroundImage" stdDeviation="200"/>
<feComposite in2="SourceAlpha" operator="in" result="effect1_backgroundBlur"/>
<feBlend mode="normal" in="SourceGraphic" in2="effect1_backgroundBlur" result="shape"/>
</filter>
<filter id="filter16_b" x="239.837" y="2009.75" width="963.353" height="961.558" filterUnits="userSpaceOnUse" color-interpolation-filters="sRGB">
<feFlood flood-opacity="0" result="BackgroundImageFix"/>
<feGaussianBlur in="BackgroundImage" stdDeviation="200"/>
<feComposite in2="SourceAlpha" operator="in" result="effect1_backgroundBlur"/>
<feBlend mode="normal" in="SourceGraphic" in2="effect1_backgroundBlur" result="shape"/>
</filter>
<filter id="filter17_b" x="-461" y="2237.9" width="963.353" height="961.558" filterUnits="userSpaceOnUse" color-interpolation-filters="sRGB">
<feFlood flood-opacity="0" result="BackgroundImageFix"/>
<feGaussianBlur in="BackgroundImage" stdDeviation="200"/>
<feComposite in2="SourceAlpha" operator="in" result="effect1_backgroundBlur"/>
<feBlend mode="normal" in="SourceGraphic" in2="effect1_backgroundBlur" result="shape"/>
</filter>
<filter id="filter18_b" x="868.173" y="3120.95" width="1085.87" height="1085.87" filterUnits="userSpaceOnUse" color-interpolation-filters="sRGB">
<feFlood flood-opacity="0" result="BackgroundImageFix"/>
<feGaussianBlur in="BackgroundImage" stdDeviation="200"/>
<feComposite in2="SourceAlpha" operator="in" result="effect1_backgroundBlur"/>
<feBlend mode="normal" in="SourceGraphic" in2="effect1_backgroundBlur" result="shape"/>
</filter>
<filter id="filter19_b" x="-358.31" y="3524.65" width="1085.87" height="1085.87" filterUnits="userSpaceOnUse" color-interpolation-filters="sRGB">
<feFlood flood-opacity="0" result="BackgroundImageFix"/>
<feGaussianBlur in="BackgroundImage" stdDeviation="200"/>
<feComposite in2="SourceAlpha" operator="in" result="effect1_backgroundBlur"/>
<feBlend mode="normal" in="SourceGraphic" in2="effect1_backgroundBlur" result="shape"/>
</filter>
<filter id="filter20_b" x="868.173" y="2217.22" width="1085.87" height="1085.87" filterUnits="userSpaceOnUse" color-interpolation-filters="sRGB">
<feFlood flood-opacity="0" result="BackgroundImageFix"/>
<feGaussianBlur in="BackgroundImage" stdDeviation="200"/>
<feComposite in2="SourceAlpha" operator="in" result="effect1_backgroundBlur"/>
<feBlend mode="normal" in="SourceGraphic" in2="effect1_backgroundBlur" result="shape"/>
</filter>
<filter id="filter21_b" x="-358.31" y="2620.93" width="1085.87" height="1085.87" filterUnits="userSpaceOnUse" color-interpolation-filters="sRGB">
<feFlood flood-opacity="0" result="BackgroundImageFix"/>
<feGaussianBlur in="BackgroundImage" stdDeviation="200"/>
<feComposite in2="SourceAlpha" operator="in" result="effect1_backgroundBlur"/>
<feBlend mode="normal" in="SourceGraphic" in2="effect1_backgroundBlur" result="shape"/>
</filter>
<filter id="filter22_b" x="857.927" y="1313.5" width="1085.87" height="1085.87" filterUnits="userSpaceOnUse" color-interpolation-filters="sRGB">
<feFlood flood-opacity="0" result="BackgroundImageFix"/>
<feGaussianBlur in="BackgroundImage" stdDeviation="200"/>
<feComposite in2="SourceAlpha" operator="in" result="effect1_backgroundBlur"/>
<feBlend mode="normal" in="SourceGraphic" in2="effect1_backgroundBlur" result="shape"/>
</filter>
<filter id="filter23_b" x="-368.557" y="1717.2" width="1085.87" height="1085.87" filterUnits="userSpaceOnUse" color-interpolation-filters="sRGB">
<feFlood flood-opacity="0" result="BackgroundImageFix"/>
<feGaussianBlur in="BackgroundImage" stdDeviation="200"/>
<feComposite in2="SourceAlpha" operator="in" result="effect1_backgroundBlur"/>
<feBlend mode="normal" in="SourceGraphic" in2="effect1_backgroundBlur" result="shape"/>
</filter>
<filter id="filter24_b" x="839.483" y="593.182" width="1085.87" height="1085.87" filterUnits="userSpaceOnUse" color-interpolation-filters="sRGB">
<feFlood flood-opacity="0" result="BackgroundImageFix"/>
<feGaussianBlur in="BackgroundImage" stdDeviation="200"/>
<feComposite in2="SourceAlpha" operator="in" result="effect1_backgroundBlur"/>
<feBlend mode="normal" in="SourceGraphic" in2="effect1_backgroundBlur" result="shape"/>
</filter>
<filter id="filter25_b" x="-387" y="996.887" width="1085.87" height="1085.87" filterUnits="userSpaceOnUse" color-interpolation-filters="sRGB">
<feFlood flood-opacity="0" result="BackgroundImageFix"/>
<feGaussianBlur in="BackgroundImage" stdDeviation="200"/>
<feComposite in2="SourceAlpha" operator="in" result="effect1_backgroundBlur"/>
<feBlend mode="normal" in="SourceGraphic" in2="effect1_backgroundBlur" result="shape"/>
</filter>
<filter id="filter26_b" x="894.813" y="-288" width="1085.87" height="1085.87" filterUnits="userSpaceOnUse" color-interpolation-filters="sRGB">
<feFlood flood-opacity="0" result="BackgroundImageFix"/>
<feGaussianBlur in="BackgroundImage" stdDeviation="200"/>
<feComposite in2="SourceAlpha" operator="in" result="effect1_backgroundBlur"/>
<feBlend mode="normal" in="SourceGraphic" in2="effect1_backgroundBlur" result="shape"/>
</filter>
<filter id="filter27_b" x="-331.67" y="115.704" width="1085.87" height="1085.87" filterUnits="userSpaceOnUse" color-interpolation-filters="sRGB">
<feFlood flood-opacity="0" result="BackgroundImageFix"/>
<feGaussianBlur in="BackgroundImage" stdDeviation="200"/>
<feComposite in2="SourceAlpha" operator="in" result="effect1_backgroundBlur"/>
<feBlend mode="normal" in="SourceGraphic" in2="effect1_backgroundBlur" result="shape"/>
</filter>
<linearGradient id="paint0_linear" x1="720" y1="0" x2="720" y2="4100" gradientUnits="userSpaceOnUse">
<stop stop-color="#6C63FF"/>
<stop offset="1" stop-color="white" stop-opacity="0"/>
</linearGradient>
<linearGradient id="paint1_linear" x1="2038.5" y1="3593.5" x2="-1042" y2="1302.5" gradientUnits="userSpaceOnUse">
<stop stop-color="#3C6071"/>
<stop offset="1" stop-color="white" stop-opacity="0"/>
</linearGradient>
<radialGradient id="paint2_radial" cx="0" cy="0" r="1" gradientUnits="userSpaceOnUse" gradientTransform="translate(373 739.5) rotate(84.1046) scale(3378.37 1186.55)">
<stop stop-color="white"/>
<stop offset="1" stop-color="white" stop-opacity="0"/>
</radialGradient>
<radialGradient id="paint3_radial" cx="0" cy="0" r="1" gradientUnits="userSpaceOnUse" gradientTransform="translate(958 4003.5) rotate(133.136) scale(1271.7 1344.47)">
<stop stop-color="white"/>
<stop offset="1" stop-color="white" stop-opacity="0"/>
</radialGradient>
<linearGradient id="paint4_linear" x1="720" y1="0" x2="720" y2="4100" gradientUnits="userSpaceOnUse">
<stop stop-color="white"/>
<stop offset="1" stop-color="white" stop-opacity="0"/>
</linearGradient>
<radialGradient id="paint5_angular" cx="0" cy="0" r="1" gradientUnits="userSpaceOnUse" gradientTransform="translate(720 2050) rotate(90) scale(2050 720)">
<stop stop-color="#3C6071"/>
<stop offset="1" stop-color="#6C63FF"/>
</radialGradient>
<radialGradient id="paint6_radial" cx="0" cy="0" r="1" gradientUnits="userSpaceOnUse" gradientTransform="translate(4.16976e-05 1599) rotate(58.5881) scale(1381.46)">
<stop stop-color="#2F3D81"/>
<stop offset="1" stop-color="white" stop-opacity="0"/>
</radialGradient>
<linearGradient id="paint7_linear" x1="720" y1="0" x2="720" y2="4100" gradientUnits="userSpaceOnUse">
<stop stop-color="#6C63FF"/>
<stop offset="1" stop-color="#3C6071"/>
</linearGradient>
<linearGradient id="paint8_linear" x1="2038.5" y1="3593.5" x2="-1042" y2="1302.5" gradientUnits="userSpaceOnUse">
<stop stop-color="#3C6071"/>
<stop offset="1" stop-color="white" stop-opacity="0"/>
</linearGradient>
<radialGradient id="paint9_radial" cx="0" cy="0" r="1" gradientUnits="userSpaceOnUse" gradientTransform="translate(373 739.5) rotate(84.1046) scale(3378.37 1186.55)">
<stop stop-color="#3C6071"/>
<stop offset="1" stop-color="#576572"/>
</radialGradient>
<radialGradient id="paint10_radial" cx="0" cy="0" r="1" gradientUnits="userSpaceOnUse" gradientTransform="translate(958 4003.5) rotate(133.136) scale(1271.7 1344.47)">
<stop stop-color="#3C6071"/>
<stop offset="1" stop-color="#6A8E9E"/>
</radialGradient>
<linearGradient id="paint11_linear" x1="720" y1="0" x2="720" y2="4100" gradientUnits="userSpaceOnUse">
<stop stop-color="#3C6071"/>
<stop offset="1" stop-color="#3C6071"/>
</linearGradient>
<radialGradient id="paint12_angular" cx="0" cy="0" r="1" gradientUnits="userSpaceOnUse" gradientTransform="translate(720 2050) rotate(90) scale(2050 720)">
<stop stop-color="#3C6071"/>
<stop offset="1" stop-color="#6C63FF"/>
</radialGradient>
<radialGradient id="paint13_radial" cx="0" cy="0" r="1" gradientUnits="userSpaceOnUse" gradientTransform="translate(4.16976e-05 1599) rotate(58.5881) scale(1381.46)">
<stop stop-color="#3C6071"/>
<stop offset="1" stop-color="#3C6071"/>
</radialGradient>
<linearGradient id="paint14_linear" x1="752.101" y1="1926.14" x2="752.101" y2="2087.7" gradientUnits="userSpaceOnUse">
<stop stop-color="white"/>
<stop offset="1" stop-color="white" stop-opacity="0"/>
</linearGradient>
<linearGradient id="paint15_linear" x1="51.2641" y1="2154.29" x2="51.2641" y2="2315.85" gradientUnits="userSpaceOnUse">
<stop stop-color="white"/>
<stop offset="1" stop-color="white" stop-opacity="0"/>
</linearGradient>
<linearGradient id="paint16_linear" x1="752.101" y1="1415.41" x2="752.101" y2="1576.97" gradientUnits="userSpaceOnUse">
<stop stop-color="white"/>
<stop offset="1" stop-color="white" stop-opacity="0"/>
</linearGradient>
<linearGradient id="paint17_linear" x1="51.2641" y1="1643.56" x2="51.2641" y2="1805.12" gradientUnits="userSpaceOnUse">
<stop stop-color="white"/>
<stop offset="1" stop-color="white" stop-opacity="0"/>
</linearGradient>
<linearGradient id="paint18_linear" x1="746.246" y1="904.677" x2="746.246" y2="1066.24" gradientUnits="userSpaceOnUse">
<stop stop-color="white"/>
<stop offset="1" stop-color="white" stop-opacity="0"/>
</linearGradient>
<linearGradient id="paint19_linear" x1="45.4091" y1="1132.83" x2="45.4091" y2="1294.39" gradientUnits="userSpaceOnUse">
<stop stop-color="white"/>
<stop offset="1" stop-color="white" stop-opacity="0"/>
</linearGradient>
<linearGradient id="paint20_linear" x1="735.707" y1="497.598" x2="735.707" y2="659.156" gradientUnits="userSpaceOnUse">
<stop stop-color="white"/>
<stop offset="1" stop-color="white" stop-opacity="0"/>
</linearGradient>
<linearGradient id="paint21_linear" x1="34.8703" y1="725.748" x2="34.8703" y2="887.306" gradientUnits="userSpaceOnUse">
<stop stop-color="white"/>
<stop offset="1" stop-color="white" stop-opacity="0"/>
</linearGradient>
<linearGradient id="paint22_linear" x1="767.324" y1="-0.393555" x2="767.324" y2="161.164" gradientUnits="userSpaceOnUse">
<stop stop-color="white"/>
<stop offset="1" stop-color="white" stop-opacity="0"/>
</linearGradient>
<linearGradient id="paint23_linear" x1="66.487" y1="227.756" x2="66.487" y2="389.314" gradientUnits="userSpaceOnUse">
<stop stop-color="white"/>
<stop offset="1" stop-color="white" stop-opacity="0"/>
</linearGradient>
<linearGradient id="paint24_linear" x1="737.907" y1="3838.29" x2="737.907" y2="3999.85" gradientUnits="userSpaceOnUse">
<stop stop-color="white"/>
<stop offset="1" stop-color="white" stop-opacity="0"/>
</linearGradient>
<linearGradient id="paint25_linear" x1="37.0702" y1="4066.44" x2="37.0702" y2="4228" gradientUnits="userSpaceOnUse">
<stop stop-color="white"/>
<stop offset="1" stop-color="white" stop-opacity="0"/>
</linearGradient>
<linearGradient id="paint26_linear" x1="737.907" y1="3327.56" x2="737.907" y2="3489.12" gradientUnits="userSpaceOnUse">
<stop stop-color="white"/>
<stop offset="1" stop-color="white" stop-opacity="0"/>
</linearGradient>
<linearGradient id="paint27_linear" x1="37.0702" y1="3555.71" x2="37.0702" y2="3717.27" gradientUnits="userSpaceOnUse">
<stop stop-color="white"/>
<stop offset="1" stop-color="white" stop-opacity="0"/>
</linearGradient>
<linearGradient id="paint28_linear" x1="732.052" y1="2816.83" x2="732.052" y2="2978.39" gradientUnits="userSpaceOnUse">
<stop stop-color="white"/>
<stop offset="1" stop-color="white" stop-opacity="0"/>
</linearGradient>
<linearGradient id="paint29_linear" x1="31.2154" y1="3044.98" x2="31.2154" y2="3206.54" gradientUnits="userSpaceOnUse">
<stop stop-color="white"/>
<stop offset="1" stop-color="white" stop-opacity="0"/>
</linearGradient>
<linearGradient id="paint30_linear" x1="721.513" y1="2409.75" x2="721.513" y2="2571.31" gradientUnits="userSpaceOnUse">
<stop stop-color="white"/>
<stop offset="1" stop-color="white" stop-opacity="0"/>
</linearGradient>
<linearGradient id="paint31_linear" x1="20.6764" y1="2637.9" x2="20.6764" y2="2799.46" gradientUnits="userSpaceOnUse">
<stop stop-color="white"/>
<stop offset="1" stop-color="white" stop-opacity="0"/>
</linearGradient>
<linearGradient id="paint32_linear" x1="1411.11" y1="3520.95" x2="1411.11" y2="3806.82" gradientUnits="userSpaceOnUse">
<stop stop-color="white"/>
<stop offset="1" stop-color="white" stop-opacity="0"/>
</linearGradient>
<linearGradient id="paint33_linear" x1="184.626" y1="3924.65" x2="184.626" y2="4210.52" gradientUnits="userSpaceOnUse">
<stop stop-color="white"/>
<stop offset="1" stop-color="white" stop-opacity="0"/>
</linearGradient>
<linearGradient id="paint34_linear" x1="1411.11" y1="2617.22" x2="1411.11" y2="2903.09" gradientUnits="userSpaceOnUse">
<stop stop-color="white"/>
<stop offset="1" stop-color="white" stop-opacity="0"/>
</linearGradient>
<linearGradient id="paint35_linear" x1="184.626" y1="3020.93" x2="184.626" y2="3306.8" gradientUnits="userSpaceOnUse">
<stop stop-color="white"/>
<stop offset="1" stop-color="white" stop-opacity="0"/>
</linearGradient>
<linearGradient id="paint36_linear" x1="1400.86" y1="1713.5" x2="1400.86" y2="1999.37" gradientUnits="userSpaceOnUse">
<stop stop-color="white"/>
<stop offset="1" stop-color="white" stop-opacity="0"/>
</linearGradient>
<linearGradient id="paint37_linear" x1="174.379" y1="2117.2" x2="174.379" y2="2403.07" gradientUnits="userSpaceOnUse">
<stop stop-color="white"/>
<stop offset="1" stop-color="white" stop-opacity="0"/>
</linearGradient>
<linearGradient id="paint38_linear" x1="1382.42" y1="993.182" x2="1382.42" y2="1279.05" gradientUnits="userSpaceOnUse">
<stop stop-color="white"/>
<stop offset="1" stop-color="white" stop-opacity="0"/>
</linearGradient>
<linearGradient id="paint39_linear" x1="155.936" y1="1396.89" x2="155.936" y2="1682.76" gradientUnits="userSpaceOnUse">
<stop stop-color="white"/>
<stop offset="1" stop-color="white" stop-opacity="0"/>
</linearGradient>
<linearGradient id="paint40_linear" x1="1437.75" y1="112" x2="1437.75" y2="397.872" gradientUnits="userSpaceOnUse">
<stop stop-color="white"/>
<stop offset="1" stop-color="white" stop-opacity="0"/>
</linearGradient>
<linearGradient id="paint41_linear" x1="211.266" y1="515.704" x2="211.266" y2="801.576" gradientUnits="userSpaceOnUse">
<stop stop-color="white"/>
<stop offset="1" stop-color="white" stop-opacity="0"/>
</linearGradient>
<clipPath id="clip0">
<rect width="1440" height="4100" fill="white"/>
</clipPath>
</defs>
</svg>
